# xmcd CD database file
#
# Track frame offsets:
#	150
#	76317
#	112668
#	171582
#
# Disc length: 2559 seconds
#
# Revision: 0
# Processed by: cddbd v1.4PL0 Copyright (c) Steve Scherf et al.
# Submitted via: CDex 1.50
#
DISCID=2609fd04
DTITLE=Sonny Sharrock - 25 Nov 1989 * Knitting Factory
DYEAR=1989
DGENRE=Jazz
TTITLE0=Fourteen
TTITLE1=Stupid Fuck
TTITLE2=My Song
TTITLE3=JD Schaa
EXTD=YEAR: 1989
EXTT0=
EXTT1=
EXTT2=
EXTT3=
PLAYORDER=
